<svg width="300" height="300" viewBox="0 0 300 300" fill="none" xmlns="http://www.w3.org/2000/svg">
<rect width="300" height="300" fill="#0F0F0F"/>
<g clip-path="url(#clip0_7_2)">
<path fill-rule="evenodd" clip-rule="evenodd" d="M93.3604 105L50 133.681V195H77.4618V174.007C77.4618 165.003 84.4946 157.705 93.17 157.705C101.845 157.705 108.878 165.003 108.878 174.007V195H136.721V133.681L93.3604 105ZM97.8935 136.131C97.8935 133.739 96.0246 131.799 93.7193 131.799C91.4139 131.799 89.5451 133.739 89.5451 136.131V139.08C89.5451 141.472 91.4139 143.412 93.7193 143.412C96.0246 143.412 97.8935 141.472 97.8935 139.08V136.131Z" fill="white"/>
<path d="M177.742 156.24H169.237L165.229 140.06L161.221 156.24H152.76L147.862 132.179H154.052L157.57 150.723L162.468 132.179H168.613L173.378 150.769L176.941 132.179H182.641L177.742 156.24Z" fill="white"/>
<path d="M205.819 154.663C205.463 154.88 205.047 155.111 204.572 155.359C204.127 155.575 203.577 155.792 202.924 156.008C202.301 156.193 201.559 156.348 200.698 156.471C199.867 156.626 198.872 156.703 197.714 156.703C193.202 156.703 189.862 155.606 187.695 153.412C185.528 151.217 184.444 148.142 184.444 144.186C184.444 142.239 184.726 140.493 185.29 138.948C185.884 137.402 186.7 136.104 187.739 135.053C188.778 133.972 190.01 133.153 191.435 132.596C192.89 132.009 194.493 131.715 196.245 131.715C198.026 131.715 199.629 132.025 201.054 132.643C202.479 133.23 203.652 134.111 204.572 135.285C205.522 136.46 206.175 137.943 206.531 139.736C206.888 141.528 206.888 143.599 206.531 145.948H190.857C191.094 147.833 191.747 149.255 192.816 150.213C193.914 151.14 195.651 151.604 198.026 151.604C199.926 151.604 201.47 151.387 202.657 150.955C203.874 150.522 204.928 150.074 205.819 149.61V154.663ZM196.334 136.491C194.968 136.491 193.825 136.923 192.905 137.789C191.985 138.654 191.361 139.906 191.035 141.544H200.653C200.683 139.844 200.327 138.577 199.585 137.742C198.842 136.908 197.759 136.491 196.334 136.491Z" fill="white"/>
<path d="M234.781 144.186C234.781 146.319 234.499 148.173 233.935 149.749C233.4 151.295 232.673 152.593 231.753 153.644C230.833 154.663 229.749 155.436 228.502 155.961C227.255 156.456 225.949 156.703 224.583 156.703C222.802 156.703 221.273 156.286 219.997 155.451C218.75 154.617 217.755 153.489 217.013 152.067L216.79 156.24H211.001V123H217.147L217.102 136.027C217.874 134.667 218.883 133.616 220.13 132.875C221.377 132.102 222.876 131.715 224.628 131.715C225.994 131.715 227.285 131.978 228.502 132.504C229.749 132.998 230.833 133.771 231.753 134.822C232.703 135.841 233.445 137.14 233.979 138.716C234.514 140.261 234.781 142.085 234.781 144.186ZM222.847 151.557C224.509 151.557 225.86 150.955 226.899 149.749C227.938 148.544 228.458 146.69 228.458 144.186C228.458 141.714 227.938 139.875 226.899 138.669C225.86 137.433 224.524 136.815 222.891 136.815C221.229 136.815 219.848 137.433 218.75 138.669C217.651 139.875 217.102 141.714 217.102 144.186C217.102 146.69 217.651 148.544 218.75 149.749C219.848 150.955 221.214 151.557 222.847 151.557Z" fill="white"/>
<path d="M238.912 139.318H250V144.603H238.912V139.318Z" fill="white"/>
<path d="M155.7 160.76V195H149.554V160.76H155.7Z" fill="white"/>
<path d="M174.66 194.536C174.571 194.073 174.482 193.47 174.393 192.728C174.334 191.956 174.274 191.291 174.215 190.735C173.977 191.26 173.666 191.77 173.28 192.265C172.924 192.759 172.463 193.223 171.899 193.656C171.335 194.057 170.667 194.382 169.895 194.629C169.153 194.876 168.277 195 167.268 195C166.288 195 165.353 194.861 164.463 194.583C163.602 194.305 162.83 193.872 162.147 193.285C161.494 192.697 160.974 191.971 160.588 191.106C160.203 190.24 160.01 189.22 160.01 188.046C160.01 185.481 160.974 183.503 162.904 182.112C164.834 180.721 167.58 180.026 171.142 180.026H173.992V178.96C173.992 177.476 173.621 176.472 172.879 175.946C172.166 175.39 171.009 175.112 169.406 175.112C167.802 175.112 166.333 175.328 164.997 175.761C163.661 176.194 162.488 176.673 161.479 177.198V172.099C162.488 171.573 163.78 171.094 165.353 170.661C166.927 170.229 168.649 170.012 170.519 170.012C173.547 170.012 175.907 170.677 177.599 172.006C179.321 173.335 180.182 175.452 180.182 178.357V190.642C180.182 190.92 180.182 191.245 180.182 191.616C180.212 191.956 180.227 192.311 180.227 192.682C180.256 193.053 180.286 193.408 180.316 193.748C180.345 194.057 180.375 194.32 180.405 194.536H174.66ZM169.138 190.41C170.148 190.41 170.964 190.194 171.588 189.761C172.211 189.298 172.701 188.772 173.057 188.185C173.413 187.598 173.651 187.026 173.77 186.47C173.918 185.883 173.992 185.465 173.992 185.218V183.781H171.365C169.524 183.781 168.174 184.106 167.313 184.755C166.481 185.373 166.066 186.223 166.066 187.304C166.066 188.293 166.333 189.066 166.867 189.622C167.431 190.148 168.188 190.41 169.138 190.41Z" fill="white"/>
<path d="M199.282 176.549C197.59 176.395 196.061 176.564 194.696 177.059C193.33 177.522 192.261 178.28 191.489 179.331V194.536H185.344V170.476H191.089L191.4 175.344H191.489C192.321 173.767 193.389 172.516 194.696 171.589C196.032 170.661 197.56 170.136 199.282 170.012V176.549Z" fill="white"/>
<path d="M217.878 167.323C216.958 167.323 216.171 166.983 215.518 166.304C214.895 165.624 214.583 164.82 214.583 163.893C214.583 162.935 214.895 162.131 215.518 161.482C216.171 160.802 216.958 160.462 217.878 160.462C218.828 160.462 219.63 160.802 220.283 161.482C220.936 162.131 221.263 162.935 221.263 163.893C221.263 164.82 220.936 165.624 220.283 166.304C219.63 166.983 218.828 167.323 217.878 167.323ZM208.215 167.323C207.325 167.323 206.553 166.983 205.9 166.304C205.246 165.624 204.92 164.82 204.92 163.893C204.92 162.935 205.246 162.131 205.9 161.482C206.553 160.802 207.325 160.462 208.215 160.462C209.165 160.462 209.967 160.802 210.62 161.482C211.273 162.131 211.6 162.935 211.6 163.893C211.6 164.82 211.273 165.624 210.62 166.304C209.967 166.983 209.165 167.323 208.215 167.323ZM222.866 192.96C222.51 193.176 222.094 193.408 221.619 193.656C221.174 193.872 220.624 194.088 219.971 194.305C219.348 194.49 218.606 194.645 217.745 194.768C216.914 194.923 215.919 195 214.761 195C210.249 195 206.909 193.903 204.742 191.708C202.575 189.514 201.491 186.439 201.491 182.483C201.491 180.536 201.773 178.79 202.337 177.244C202.931 175.699 203.747 174.401 204.786 173.35C205.825 172.268 207.057 171.449 208.482 170.893C209.937 170.306 211.54 170.012 213.292 170.012C215.073 170.012 216.676 170.321 218.101 170.939C219.526 171.527 220.699 172.408 221.619 173.582C222.569 174.756 223.222 176.24 223.578 178.032C223.935 179.825 223.935 181.896 223.578 184.245H207.903C208.141 186.13 208.794 187.552 209.863 188.51C210.961 189.437 212.698 189.9 215.073 189.9C216.973 189.9 218.517 189.684 219.704 189.251C220.921 188.819 221.975 188.371 222.866 187.907V192.96ZM213.381 174.787C212.015 174.787 210.872 175.22 209.952 176.085C209.032 176.951 208.408 178.202 208.082 179.84H217.7C217.73 178.141 217.374 176.873 216.632 176.039C215.889 175.205 214.806 174.787 213.381 174.787Z" fill="white"/>
<path d="M236.285 185.172H234.281V194.536H228.135V161.297H234.281V180.072H236.374L243.142 170.476H249.332L241.183 181.973L249.911 194.536H242.831L236.285 185.172Z" fill="white"/>
</g>
<defs>
<clipPath id="clip0_7_2">
<rect width="200" height="90" fill="white" transform="translate(50 105)"/>
</clipPath>
</defs>
</svg>
