<svg width="300" height="300" viewBox="0 0 300 300" fill="none" xmlns="http://www.w3.org/2000/svg">
<rect width="300" height="300" fill="#0F0F0F"/>
<g clip-path="url(#clip0_9_13)">
<g filter="url(#filter0_f_9_13)">
<path d="M164.513 162.633C165.013 162.02 164.562 161.14 163.77 161.127C153.664 160.96 145.212 161.147 134.758 161.783C133.967 161.831 133.555 162.731 134.083 163.322C137.746 167.42 143.074 170 149.004 170C155.26 170 160.845 167.129 164.513 162.633Z" stroke="#4C4CFF" stroke-linecap="round" stroke-linejoin="round"/>
<path d="M131.643 140.058C131.252 140.738 131.827 141.529 132.606 141.436C144.173 140.048 152.698 139.634 164.788 140.37C165.575 140.418 166.104 139.587 165.668 138.931C162.083 133.548 155.958 130 149.004 130C141.576 130 135.093 134.048 131.643 140.058Z" stroke="#4C4CFF" stroke-linecap="round" stroke-linejoin="round"/>
</g>
<g filter="url(#filter1_f_9_13)">
<path d="M164.513 162.633C165.013 162.02 164.562 161.14 163.77 161.127C153.664 160.96 145.212 161.147 134.758 161.783C133.967 161.831 133.555 162.731 134.083 163.322C137.746 167.42 143.074 170 149.004 170C155.26 170 160.845 167.129 164.513 162.633Z" stroke="#4C4CFF" stroke-linecap="round" stroke-linejoin="round"/>
<path d="M131.643 140.058C131.252 140.738 131.827 141.529 132.606 141.436C144.173 140.048 152.698 139.634 164.788 140.37C165.575 140.418 166.104 139.587 165.668 138.931C162.083 133.548 155.958 130 149.004 130C141.576 130 135.093 134.048 131.643 140.058Z" stroke="#4C4CFF" stroke-linecap="round" stroke-linejoin="round"/>
</g>
<path d="M164.513 162.633C165.013 162.02 164.562 161.14 163.77 161.127C153.664 160.96 145.212 161.147 134.758 161.783C133.967 161.831 133.555 162.731 134.083 163.322C137.746 167.42 143.074 170 149.004 170C155.26 170 160.845 167.129 164.513 162.633Z" stroke="#4C4CFF" stroke-linecap="round" stroke-linejoin="round"/>
<path d="M131.643 140.058C131.252 140.738 131.827 141.529 132.606 141.436C144.173 140.048 152.698 139.634 164.788 140.37C165.575 140.418 166.104 139.587 165.668 138.931C162.083 133.548 155.958 130 149.004 130C141.576 130 135.093 134.048 131.643 140.058Z" stroke="#4C4CFF" stroke-linecap="round" stroke-linejoin="round"/>
<path d="M164.513 162.633C165.013 162.02 164.562 161.14 163.77 161.127C153.664 160.96 145.212 161.147 134.758 161.783C133.967 161.831 133.555 162.731 134.083 163.322C137.746 167.42 143.074 170 149.004 170C155.26 170 160.845 167.129 164.513 162.633Z" stroke="white" stroke-width="0.5" stroke-linecap="round" stroke-linejoin="round"/>
<path d="M131.643 140.058C131.252 140.738 131.827 141.529 132.606 141.436C144.173 140.048 152.698 139.634 164.788 140.37C165.575 140.418 166.104 139.587 165.668 138.931C162.083 133.548 155.958 130 149.004 130C141.576 130 135.093 134.048 131.643 140.058Z" stroke="white" stroke-width="0.5" stroke-linecap="round" stroke-linejoin="round"/>
<g filter="url(#filter2_f_9_13)">
<path d="M168.859 152.466C168.988 151.413 168.172 150.511 167.115 150.426C154.235 149.388 144.184 149.225 130.89 149.924C129.831 149.98 128.99 150.86 129.089 151.916C129.23 153.414 129.537 154.865 129.991 156.25C130.253 157.047 131.032 157.541 131.871 157.512C144.383 157.078 154.06 157.047 166.196 157.375C167.035 157.397 167.811 156.898 168.066 156.097C168.439 154.93 168.707 153.715 168.859 152.466Z" stroke="#E33CD5" stroke-linecap="round" stroke-linejoin="round"/>
</g>
<g filter="url(#filter3_f_9_13)">
<path d="M168.859 152.466C168.988 151.413 168.172 150.511 167.115 150.426C154.235 149.388 144.184 149.225 130.89 149.924C129.831 149.98 128.99 150.86 129.089 151.916C129.23 153.414 129.537 154.865 129.991 156.25C130.253 157.047 131.032 157.541 131.871 157.512C144.383 157.078 154.06 157.047 166.196 157.375C167.035 157.397 167.811 156.898 168.066 156.097C168.439 154.93 168.707 153.715 168.859 152.466Z" stroke="#E33CD5" stroke-linecap="round" stroke-linejoin="round"/>
</g>
<path d="M168.859 152.466C168.988 151.413 168.172 150.511 167.115 150.426C154.235 149.388 144.184 149.225 130.89 149.924C129.831 149.98 128.99 150.86 129.089 151.916C129.23 153.414 129.537 154.865 129.991 156.25C130.253 157.047 131.032 157.541 131.871 157.512C144.383 157.078 154.06 157.047 166.196 157.375C167.035 157.397 167.811 156.898 168.066 156.097C168.439 154.93 168.707 153.715 168.859 152.466Z" stroke="#E33CD5" stroke-linecap="round" stroke-linejoin="round"/>
<path d="M168.859 152.466C168.988 151.413 168.172 150.511 167.115 150.426C154.235 149.388 144.184 149.225 130.89 149.924C129.831 149.98 128.99 150.86 129.089 151.916C129.23 153.414 129.537 154.865 129.991 156.25C130.253 157.047 131.032 157.541 131.871 157.512C144.383 157.078 154.06 157.047 166.196 157.375C167.035 157.397 167.811 156.898 168.066 156.097C168.439 154.93 168.707 153.715 168.859 152.466Z" stroke="white" stroke-width="0.5" stroke-linecap="round" stroke-linejoin="round"/>
<g filter="url(#filter4_f_9_13)">
<path d="M129 145.5C131.667 143.5 134.333 143.5 137 145.5C139.667 147.5 142.333 147.5 145 145.5C147.667 143.5 150.333 143.5 153 145.5C155.667 147.5 158.333 147.5 161 145.5C163.667 143.5 166.333 143.5 169 145.5" stroke="#00CCCC" stroke-linecap="round" stroke-linejoin="round"/>
</g>
<g filter="url(#filter5_f_9_13)">
<path d="M129 145.5C131.667 143.5 134.333 143.5 137 145.5C139.667 147.5 142.333 147.5 145 145.5C147.667 143.5 150.333 143.5 153 145.5C155.667 147.5 158.333 147.5 161 145.5C163.667 143.5 166.333 143.5 169 145.5" stroke="#00CCCC" stroke-linecap="round" stroke-linejoin="round"/>
</g>
<path d="M129 145.5C131.667 143.5 134.333 143.5 137 145.5C139.667 147.5 142.333 147.5 145 145.5C147.667 143.5 150.333 143.5 153 145.5C155.667 147.5 158.333 147.5 161 145.5C163.667 143.5 166.333 143.5 169 145.5" stroke="#00CCCC" stroke-linecap="round" stroke-linejoin="round"/>
<path d="M129 145.5C131.667 143.5 134.333 143.5 137 145.5C139.667 147.5 142.333 147.5 145 145.5C147.667 143.5 150.333 143.5 153 145.5C155.667 147.5 158.333 147.5 161 145.5C163.667 143.5 166.333 143.5 169 145.5" stroke="white" stroke-width="0.5" stroke-linecap="round" stroke-linejoin="round"/>
<g filter="url(#filter6_f_9_13)">
<path d="M142.582 164.317C143.072 164.574 143.312 165.079 143.119 165.446C142.927 165.813 142.375 165.902 141.885 165.645C141.396 165.389 141.156 164.883 141.348 164.517C141.541 164.15 142.093 164.061 142.582 164.317Z" stroke="#4C4CFF"/>
<path d="M157.449 137.32C158.249 137.535 159.014 137.276 159.157 136.742C159.3 136.209 158.767 135.603 157.967 135.388C157.167 135.174 156.402 135.433 156.259 135.966C156.116 136.499 156.649 137.106 157.449 137.32Z" stroke="#4C4CFF"/>
<path d="M154.966 164.259C155.499 164.116 156.019 164.324 156.126 164.725C156.233 165.125 155.887 165.565 155.354 165.708C154.821 165.851 154.301 165.642 154.194 165.242C154.087 164.842 154.432 164.402 154.966 164.259Z" stroke="#4C4CFF"/>
<path d="M147.5 136C146.672 136 146 136.448 146 137C146 137.552 146.672 138 147.5 138C148.328 138 149 137.552 149 137C149 136.448 148.328 136 147.5 136Z" stroke="#4C4CFF"/>
<path d="M151.449 134.32C152.249 134.534 153.014 134.276 153.157 133.742C153.3 133.209 152.767 132.603 151.967 132.388C151.167 132.174 150.402 132.432 150.259 132.966C150.116 133.499 150.649 134.106 151.449 134.32Z" stroke="#4C4CFF"/>
<path d="M149 166C149.552 166 150 166.336 150 166.75C150 167.164 149.552 167.5 149 167.5C148.448 167.5 148 167.164 148 166.75C148 166.336 148.448 166 149 166Z" stroke="#4C4CFF"/>
<path d="M141.258 136.468C141.991 136.083 142.378 135.375 142.121 134.886C141.865 134.397 141.062 134.312 140.328 134.697C139.595 135.082 139.208 135.791 139.465 136.28C139.721 136.769 140.524 136.853 141.258 136.468Z" stroke="#4C4CFF"/>
</g>
<g filter="url(#filter7_f_9_13)">
<path d="M142.582 164.317C143.072 164.574 143.312 165.079 143.119 165.446C142.927 165.813 142.375 165.902 141.885 165.645C141.396 165.389 141.156 164.883 141.348 164.517C141.541 164.15 142.093 164.061 142.582 164.317Z" stroke="#4C4CFF"/>
<path d="M157.449 137.32C158.249 137.535 159.014 137.276 159.157 136.742C159.3 136.209 158.767 135.603 157.967 135.388C157.167 135.174 156.402 135.433 156.259 135.966C156.116 136.499 156.649 137.106 157.449 137.32Z" stroke="#4C4CFF"/>
<path d="M154.966 164.259C155.499 164.116 156.019 164.324 156.126 164.725C156.233 165.125 155.887 165.565 155.354 165.708C154.821 165.851 154.301 165.642 154.194 165.242C154.087 164.842 154.432 164.402 154.966 164.259Z" stroke="#4C4CFF"/>
<path d="M147.5 136C146.672 136 146 136.448 146 137C146 137.552 146.672 138 147.5 138C148.328 138 149 137.552 149 137C149 136.448 148.328 136 147.5 136Z" stroke="#4C4CFF"/>
<path d="M151.449 134.32C152.249 134.534 153.014 134.276 153.157 133.742C153.3 133.209 152.767 132.603 151.967 132.388C151.167 132.174 150.402 132.432 150.259 132.966C150.116 133.499 150.649 134.106 151.449 134.32Z" stroke="#4C4CFF"/>
<path d="M149 166C149.552 166 150 166.336 150 166.75C150 167.164 149.552 167.5 149 167.5C148.448 167.5 148 167.164 148 166.75C148 166.336 148.448 166 149 166Z" stroke="#4C4CFF"/>
<path d="M141.258 136.468C141.991 136.083 142.378 135.375 142.121 134.886C141.865 134.397 141.062 134.312 140.328 134.697C139.595 135.082 139.208 135.791 139.465 136.28C139.721 136.769 140.524 136.853 141.258 136.468Z" stroke="#4C4CFF"/>
</g>
<path d="M142.582 164.317C143.072 164.574 143.312 165.079 143.119 165.446C142.927 165.813 142.375 165.902 141.885 165.645C141.396 165.389 141.156 164.883 141.348 164.517C141.541 164.15 142.093 164.06 142.582 164.317Z" stroke="#4C4CFF"/>
<path d="M157.449 137.32C158.249 137.535 159.014 137.276 159.157 136.742C159.3 136.209 158.767 135.603 157.967 135.388C157.167 135.174 156.402 135.433 156.259 135.966C156.116 136.499 156.649 137.106 157.449 137.32Z" stroke="#4C4CFF"/>
<path d="M154.966 164.259C155.499 164.116 156.018 164.324 156.126 164.725C156.233 165.125 155.887 165.565 155.354 165.708C154.82 165.851 154.301 165.642 154.194 165.242C154.087 164.842 154.432 164.402 154.966 164.259Z" stroke="#4C4CFF"/>
<path d="M147.5 136C146.672 136 146 136.448 146 137C146 137.552 146.672 138 147.5 138C148.328 138 149 137.552 149 137C149 136.448 148.328 136 147.5 136Z" stroke="#4C4CFF"/>
<path d="M151.449 134.32C152.249 134.534 153.014 134.276 153.157 133.742C153.3 133.209 152.767 132.603 151.967 132.388C151.167 132.174 150.402 132.432 150.259 132.966C150.116 133.499 150.649 134.106 151.449 134.32Z" stroke="#4C4CFF"/>
<path d="M149 166C149.552 166 150 166.336 150 166.75C150 167.164 149.552 167.5 149 167.5C148.448 167.5 148 167.164 148 166.75C148 166.336 148.448 166 149 166Z" stroke="#4C4CFF"/>
<path d="M141.258 136.468C141.991 136.083 142.378 135.375 142.121 134.886C141.865 134.397 141.062 134.312 140.328 134.697C139.595 135.082 139.208 135.791 139.465 136.28C139.721 136.769 140.524 136.853 141.258 136.468Z" stroke="#4C4CFF"/>
<path d="M142.582 164.317C143.072 164.574 143.312 165.079 143.119 165.446C142.927 165.813 142.375 165.902 141.885 165.645C141.396 165.389 141.156 164.883 141.348 164.517C141.541 164.15 142.093 164.06 142.582 164.317Z" stroke="white" stroke-width="0.5"/>
<path d="M157.449 137.32C158.249 137.535 159.014 137.276 159.157 136.742C159.3 136.209 158.767 135.603 157.967 135.388C157.167 135.174 156.402 135.433 156.259 135.966C156.116 136.499 156.649 137.106 157.449 137.32Z" stroke="white" stroke-width="0.5"/>
<path d="M154.966 164.259C155.499 164.116 156.018 164.324 156.126 164.725C156.233 165.125 155.887 165.565 155.354 165.708C154.82 165.851 154.301 165.642 154.194 165.242C154.087 164.842 154.432 164.402 154.966 164.259Z" stroke="white" stroke-width="0.5"/>
<path d="M147.5 136C146.672 136 146 136.448 146 137C146 137.552 146.672 138 147.5 138C148.328 138 149 137.552 149 137C149 136.448 148.328 136 147.5 136Z" stroke="white" stroke-width="0.5"/>
<path d="M151.449 134.32C152.249 134.534 153.014 134.276 153.157 133.742C153.3 133.209 152.767 132.603 151.967 132.388C151.167 132.174 150.402 132.432 150.259 132.966C150.116 133.499 150.649 134.106 151.449 134.32Z" stroke="white" stroke-width="0.5"/>
<path d="M149 166C149.552 166 150 166.336 150 166.75C150 167.164 149.552 167.5 149 167.5C148.448 167.5 148 167.164 148 166.75C148 166.336 148.448 166 149 166Z" stroke="white" stroke-width="0.5"/>
<path d="M141.258 136.468C141.991 136.083 142.378 135.375 142.121 134.886C141.865 134.397 141.062 134.312 140.328 134.697C139.595 135.082 139.208 135.791 139.465 136.28C139.721 136.769 140.524 136.853 141.258 136.468Z" stroke="white" stroke-width="0.5"/>
<path d="M7.8 150.544C6.968 150.544 6.29067 150.304 5.768 149.824C5.256 149.333 5 148.672 5 147.84C5 146.741 5.432 145.947 6.296 145.456C6.712 145.221 7.21333 145.104 7.8 145.104H19.128V147.2H8.328C7.74133 147.2 7.448 147.424 7.448 147.872C7.448 148.32 7.74133 148.544 8.328 148.544L16.808 148.56C17.64 148.56 18.312 148.805 18.824 149.296C19.3467 149.787 19.608 150.448 19.608 151.28C19.608 152.4 19.176 153.195 18.312 153.664C17.9067 153.888 17.4053 154 16.808 154H5V151.904L16.28 151.92C16.8667 151.92 17.16 151.691 17.16 151.232C17.16 150.784 16.8667 150.56 16.28 150.56L7.8 150.544Z" fill="white"/>
<path d="M34.425 154H26.361C25.4223 154 24.745 153.787 24.329 153.36C24.0623 153.083 23.8863 152.768 23.801 152.416C23.737 152.181 23.705 151.819 23.705 151.328V147.2H22.105V145.104H23.705V141.552H26.377V145.104H34.425V147.2H26.377V150.672C26.377 151.163 26.489 151.499 26.713 151.68C26.8943 151.829 27.1983 151.904 27.625 151.904H34.425V154Z" fill="white"/>
<path d="M41.881 151.904H51.177V154H41.529C40.1423 154 39.081 153.611 38.345 152.832C37.6196 152.043 37.257 150.949 37.257 149.552C37.257 148.155 37.6196 147.067 38.345 146.288C39.081 145.499 40.1423 145.104 41.529 145.104H51.177V147.2H41.881C41.3903 147.2 40.985 147.339 40.665 147.616C40.5156 147.744 40.3236 148.043 40.089 148.512L40.073 148.544H51.177V150.544H40.073L40.089 150.592C40.3023 151.051 40.4943 151.349 40.665 151.488C40.985 151.765 41.3903 151.904 41.881 151.904Z" fill="white"/>
<path d="M58.4002 154C56.3522 154 55.0349 153.168 54.4482 151.504C54.2243 150.864 54.1122 150.192 54.1122 149.488V145.072H57.0243V149.216C57.0243 149.909 57.2376 150.453 57.6642 150.848C58.0056 151.168 58.4963 151.328 59.1362 151.328H67.5042V154H58.4002Z" fill="white"/>
<path d="M74.8177 154C72.7698 154 71.4524 153.168 70.8657 151.504C70.6417 150.864 70.5297 150.192 70.5297 149.488V145.072H73.4417V149.216C73.4417 149.909 73.6551 150.453 74.0817 150.848C74.4231 151.168 74.9137 151.328 75.5537 151.328H83.9218V154H74.8177Z" fill="white"/>
<path d="M87.5553 147.2V145.104H98.2272C99.2832 145.104 100.121 145.381 100.739 145.936C101.123 146.277 101.385 146.677 101.523 147.136C101.619 147.477 101.667 147.957 101.667 148.576V154H89.7473C88.8726 154 88.1846 153.76 87.6833 153.28C87.1819 152.8 86.9313 152.128 86.9313 151.264C86.9313 150.4 87.1819 149.733 87.6833 149.264C88.1953 148.784 88.8833 148.544 89.7473 148.544H98.9953V148.464C98.9953 147.803 98.7499 147.403 98.2593 147.264C98.1099 147.221 97.8806 147.2 97.5713 147.2H87.5553ZM98.9953 151.904V150.544H90.4512C89.8859 150.544 89.6032 150.773 89.6032 151.232C89.6032 151.68 89.8859 151.904 90.4512 151.904H98.9953Z" fill="white"/>
<path d="M115.182 148.24C115.182 147.941 115.087 147.707 114.895 147.536C114.756 147.408 114.543 147.344 114.255 147.344L107.614 147.328V154H104.943V145.104L114.702 145.072C115.748 145.072 116.548 145.365 117.103 145.952C117.604 146.485 117.854 147.099 117.854 147.792V148.72H115.182V148.24Z" fill="white"/>
<path d="M190.232 155H179V142.552H181.672V146.104H190.232C192.045 146.104 193.299 146.776 193.992 148.12C194.333 148.781 194.504 149.592 194.504 150.552C194.504 152.483 193.843 153.795 192.52 154.488C191.869 154.829 191.107 155 190.232 155ZM189.88 148.328H181.672V152.776H189.88C190.499 152.776 190.968 152.552 191.288 152.104C191.565 151.72 191.704 151.203 191.704 150.552C191.704 149.901 191.565 149.384 191.288 149C190.968 148.552 190.499 148.328 189.88 148.328Z" fill="white"/>
<path d="M199.219 151.832C199.219 152.461 199.528 152.776 200.147 152.776H208.243V146.104H210.915V155H199.715C198.627 155 197.827 154.717 197.315 154.152C196.803 153.587 196.547 152.963 196.547 152.28V146.104H199.219V151.832Z" fill="white"/>
<path d="M223.756 149.24C223.756 148.941 223.66 148.707 223.468 148.536C223.329 148.408 223.116 148.344 222.828 148.344L216.188 148.328V155H213.516V146.104L223.276 146.072C224.321 146.072 225.121 146.365 225.676 146.952C226.177 147.485 226.428 148.099 226.428 148.792V149.72H223.756V149.24Z" fill="white"/>
<path d="M245.311 146.12V155.256C245.311 156.301 245.007 157.117 244.399 157.704C243.791 158.291 243.012 158.584 242.063 158.584L229.695 158.552V156.472L241.583 156.488C241.999 156.488 242.287 156.365 242.447 156.12C242.575 155.928 242.639 155.613 242.639 155.176V155H232.991C231.604 155 230.543 154.611 229.807 153.832C229.081 153.043 228.719 151.949 228.719 150.552C228.719 149.155 229.081 148.067 229.807 147.288C230.543 146.499 231.604 146.104 232.991 146.104L245.311 146.12ZM233.343 148.328C232.724 148.328 232.255 148.552 231.935 149C231.657 149.384 231.519 149.901 231.519 150.552C231.519 151.203 231.657 151.72 231.935 152.104C232.244 152.552 232.713 152.776 233.343 152.776L242.639 152.744V148.344L233.343 148.328Z" fill="white"/>
<path d="M252.608 152.904H261.904V155H252.256C250.87 155 249.808 154.611 249.072 153.832C248.347 153.043 247.984 151.949 247.984 150.552C247.984 149.155 248.347 148.067 249.072 147.288C249.808 146.499 250.87 146.104 252.256 146.104H261.904V148.2H252.608C252.118 148.2 251.712 148.339 251.392 148.616C251.243 148.744 251.051 149.043 250.816 149.512L250.8 149.544H261.904V151.544H250.8L250.816 151.592C251.03 152.051 251.222 152.349 251.392 152.488C251.712 152.765 252.118 152.904 252.608 152.904Z" fill="white"/>
<path d="M274.584 149.24C274.584 148.941 274.488 148.707 274.296 148.536C274.157 148.408 273.944 148.344 273.656 148.344L267.016 148.328V155H264.344V146.104L274.104 146.072C275.149 146.072 275.949 146.365 276.504 146.952C277.005 147.485 277.256 148.099 277.256 148.792V149.72H274.584V149.24Z" fill="white"/>
<path d="M282.347 151.544C281.515 151.544 280.838 151.304 280.315 150.824C279.803 150.333 279.547 149.672 279.547 148.84C279.547 147.741 279.979 146.947 280.843 146.456C281.259 146.221 281.76 146.104 282.347 146.104H293.675V148.2H282.875C282.288 148.2 281.995 148.424 281.995 148.872C281.995 149.32 282.288 149.544 282.875 149.544L291.355 149.56C292.187 149.56 292.859 149.805 293.371 150.296C293.894 150.787 294.155 151.448 294.155 152.28C294.155 153.4 293.723 154.195 292.859 154.664C292.454 154.888 291.952 155 291.355 155H279.547V152.904L290.827 152.92C291.414 152.92 291.707 152.691 291.707 152.232C291.707 151.784 291.414 151.56 290.827 151.56L282.347 151.544Z" fill="white"/>
</g>
<defs>
<filter id="filter0_f_9_13" x="127.012" y="125.5" width="43.3186" height="49" filterUnits="userSpaceOnUse" color-interpolation-filters="sRGB">
<feFlood flood-opacity="0" result="BackgroundImageFix"/>
<feBlend mode="normal" in="SourceGraphic" in2="BackgroundImageFix" result="shape"/>
<feGaussianBlur stdDeviation="2" result="effect1_foregroundBlur_9_13"/>
</filter>
<filter id="filter1_f_9_13" x="127.012" y="125.5" width="43.3186" height="49" filterUnits="userSpaceOnUse" color-interpolation-filters="sRGB">
<feFlood flood-opacity="0" result="BackgroundImageFix"/>
<feBlend mode="normal" in="SourceGraphic" in2="BackgroundImageFix" result="shape"/>
<feGaussianBlur stdDeviation="2" result="effect1_foregroundBlur_9_13"/>
</filter>
<filter id="filter2_f_9_13" x="124.581" y="145" width="48.7919" height="17.013" filterUnits="userSpaceOnUse" color-interpolation-filters="sRGB">
<feFlood flood-opacity="0" result="BackgroundImageFix"/>
<feBlend mode="normal" in="SourceGraphic" in2="BackgroundImageFix" result="shape"/>
<feGaussianBlur stdDeviation="2" result="effect1_foregroundBlur_9_13"/>
</filter>
<filter id="filter3_f_9_13" x="124.581" y="145" width="48.7919" height="17.013" filterUnits="userSpaceOnUse" color-interpolation-filters="sRGB">
<feFlood flood-opacity="0" result="BackgroundImageFix"/>
<feBlend mode="normal" in="SourceGraphic" in2="BackgroundImageFix" result="shape"/>
<feGaussianBlur stdDeviation="2" result="effect1_foregroundBlur_9_13"/>
</filter>
<filter id="filter4_f_9_13" x="124.5" y="139.5" width="49" height="12" filterUnits="userSpaceOnUse" color-interpolation-filters="sRGB">
<feFlood flood-opacity="0" result="BackgroundImageFix"/>
<feBlend mode="normal" in="SourceGraphic" in2="BackgroundImageFix" result="shape"/>
<feGaussianBlur stdDeviation="2" result="effect1_foregroundBlur_9_13"/>
</filter>
<filter id="filter5_f_9_13" x="124.5" y="139.5" width="49" height="12" filterUnits="userSpaceOnUse" color-interpolation-filters="sRGB">
<feFlood flood-opacity="0" result="BackgroundImageFix"/>
<feBlend mode="normal" in="SourceGraphic" in2="BackgroundImageFix" result="shape"/>
<feGaussianBlur stdDeviation="2" result="effect1_foregroundBlur_9_13"/>
</filter>
<filter id="filter6_f_9_13" x="134.885" y="127.813" width="28.7953" height="44.1871" filterUnits="userSpaceOnUse" color-interpolation-filters="sRGB">
<feFlood flood-opacity="0" result="BackgroundImageFix"/>
<feBlend mode="normal" in="SourceGraphic" in2="BackgroundImageFix" result="shape"/>
<feGaussianBlur stdDeviation="2" result="effect1_foregroundBlur_9_13"/>
</filter>
<filter id="filter7_f_9_13" x="134.885" y="127.813" width="28.7953" height="44.1871" filterUnits="userSpaceOnUse" color-interpolation-filters="sRGB">
<feFlood flood-opacity="0" result="BackgroundImageFix"/>
<feBlend mode="normal" in="SourceGraphic" in2="BackgroundImageFix" result="shape"/>
<feGaussianBlur stdDeviation="2" result="effect1_foregroundBlur_9_13"/>
</filter>
<clipPath id="clip0_9_13">
<rect width="290" height="50" fill="white" transform="translate(5 125)"/>
</clipPath>
</defs>
</svg>
