<svg width="128" height="128" viewBox="0 0 128 128" fill="none" xmlns="http://www.w3.org/2000/svg">
<g clip-path="url(#clip0_1_2)">
<rect width="128" height="128" fill="#101010"/>
<mask id="path-1-outside-1_1_2" maskUnits="userSpaceOnUse" x="31" y="25" width="62" height="66" fill="black">
<rect fill="white" x="31" y="25" width="62" height="66"/>
<path d="M72.5625 42.3125V52.8438C73.9167 52.8438 75.9479 52.5208 78.6562 51.875C81.3646 51.2083 83.6146 49.4792 85.4062 46.6875C87.1354 43.9375 87.8333 39.6042 87.5 33.6875C86.7083 36.2917 85.5312 38.2292 83.9688 39.5C82.4271 40.7708 80.8542 41.6354 79.25 42.0938C77.6667 42.5521 76.2188 42.7396 74.9062 42.6562C73.6146 42.5521 72.8333 42.4375 72.5625 42.3125ZM72.5625 53.8438V85.6875C75.4167 83.8333 76.9583 81.6042 77.1875 79C77.4167 76.3958 77.5312 73.6562 77.5312 70.7812C77.5312 68.9062 77.5521 66.2292 77.5938 62.75C77.6354 59.2708 77.0833 56.6562 75.9375 54.9062C75.375 54.0521 74.25 53.6979 72.5625 53.8438ZM42 81.6875C39.3125 79.0417 37.1354 75.7917 35.4688 71.9375C33.8021 68.0833 32.9688 63.6667 32.9688 58.6875C32.9688 53.2083 34.2292 48 36.75 43.0625C39.2708 38.125 42.5938 34.2083 46.7188 31.3125C48.2188 30.2708 49.8333 29.4479 51.5625 28.8438C53.2917 28.2396 55.0312 27.75 56.7812 27.375C57.0938 27.3125 57.2292 27.4062 57.1875 27.6562C57.1667 27.9062 57.0938 28.0417 56.9688 28.0625C56.0938 28.2917 54.9792 28.8229 53.625 29.6562C52.2917 30.4688 51.3333 31.4688 50.75 32.6562C50.0208 34.0729 49.4375 35.7396 49 37.6562C48.5833 39.5521 48.2604 41.5938 48.0312 43.7812L76.1562 26.9375C76.2604 27.0625 76.4271 27.0625 76.6562 26.9375C76.9062 26.8125 77.0625 26.9688 77.125 27.4062C77.375 29.6562 77.8229 31.3854 78.4688 32.5938C79.1354 33.7812 79.8542 34.5729 80.625 34.9688C81.8958 35.6562 83.2812 35.3646 84.7812 34.0938C86.3021 32.8229 87.0833 31.2708 87.125 29.4375C87.125 29.1875 87.3125 29.0729 87.6875 29.0938C88.0625 29.0938 88.2604 29.1771 88.2812 29.3438C88.2812 29.9688 88.3021 30.5312 88.3438 31.0312C88.4062 31.5104 88.4583 32.0312 88.5 32.5938C88.625 36.2812 88.4792 39.6979 88.0625 42.8438C87.6458 45.9688 85.4271 49.125 81.4062 52.3125C84.7604 52.3958 87.4167 53.9896 89.375 57.0938C91.3333 60.1771 92.0208 64.125 91.4375 68.9375C91.125 71.4375 90.2812 73.7708 88.9062 75.9375C87.5521 78.1042 85.9479 80.0417 84.0938 81.75C78.4062 86.9583 71.3854 89.6354 63.0312 89.7812C54.6979 89.9479 47.6875 87.25 42 81.6875ZM70.9688 86V41.75C69.6562 41 68.6979 39.9062 68.0938 38.4688C67.5104 37.0104 67.125 35.875 66.9375 35.0625L66.2188 35.4688L66.0938 73.7188L50.7812 78.9375C51.2812 79.7083 51.9479 80.6042 52.7812 81.625C53.6146 82.625 54.8125 83.5625 56.375 84.4375C58.3958 85.5833 60.7812 86.4167 63.5312 86.9375C66.3021 87.4375 68.7812 87.125 70.9688 86ZM47.875 45.5312C47.6875 47.7188 47.5833 49.9792 47.5625 52.3125C47.5625 54.625 47.5938 56.875 47.6562 59.0625C47.6771 60.2708 47.7604 63.0938 47.9062 67.5312C48.0521 71.9479 48.8229 75.2604 50.2188 77.4688L52.7812 76.5625V42.8438L47.875 45.5312Z"/>
</mask>
<path d="M72.5625 42.3125V52.8438C73.9167 52.8438 75.9479 52.5208 78.6562 51.875C81.3646 51.2083 83.6146 49.4792 85.4062 46.6875C87.1354 43.9375 87.8333 39.6042 87.5 33.6875C86.7083 36.2917 85.5312 38.2292 83.9688 39.5C82.4271 40.7708 80.8542 41.6354 79.25 42.0938C77.6667 42.5521 76.2188 42.7396 74.9062 42.6562C73.6146 42.5521 72.8333 42.4375 72.5625 42.3125ZM72.5625 53.8438V85.6875C75.4167 83.8333 76.9583 81.6042 77.1875 79C77.4167 76.3958 77.5312 73.6562 77.5312 70.7812C77.5312 68.9062 77.5521 66.2292 77.5938 62.75C77.6354 59.2708 77.0833 56.6562 75.9375 54.9062C75.375 54.0521 74.25 53.6979 72.5625 53.8438ZM42 81.6875C39.3125 79.0417 37.1354 75.7917 35.4688 71.9375C33.8021 68.0833 32.9688 63.6667 32.9688 58.6875C32.9688 53.2083 34.2292 48 36.75 43.0625C39.2708 38.125 42.5938 34.2083 46.7188 31.3125C48.2188 30.2708 49.8333 29.4479 51.5625 28.8438C53.2917 28.2396 55.0312 27.75 56.7812 27.375C57.0938 27.3125 57.2292 27.4062 57.1875 27.6562C57.1667 27.9062 57.0938 28.0417 56.9688 28.0625C56.0938 28.2917 54.9792 28.8229 53.625 29.6562C52.2917 30.4688 51.3333 31.4688 50.75 32.6562C50.0208 34.0729 49.4375 35.7396 49 37.6562C48.5833 39.5521 48.2604 41.5938 48.0312 43.7812L76.1562 26.9375C76.2604 27.0625 76.4271 27.0625 76.6562 26.9375C76.9062 26.8125 77.0625 26.9688 77.125 27.4062C77.375 29.6562 77.8229 31.3854 78.4688 32.5938C79.1354 33.7812 79.8542 34.5729 80.625 34.9688C81.8958 35.6562 83.2812 35.3646 84.7812 34.0938C86.3021 32.8229 87.0833 31.2708 87.125 29.4375C87.125 29.1875 87.3125 29.0729 87.6875 29.0938C88.0625 29.0938 88.2604 29.1771 88.2812 29.3438C88.2812 29.9688 88.3021 30.5312 88.3438 31.0312C88.4062 31.5104 88.4583 32.0312 88.5 32.5938C88.625 36.2812 88.4792 39.6979 88.0625 42.8438C87.6458 45.9688 85.4271 49.125 81.4062 52.3125C84.7604 52.3958 87.4167 53.9896 89.375 57.0938C91.3333 60.1771 92.0208 64.125 91.4375 68.9375C91.125 71.4375 90.2812 73.7708 88.9062 75.9375C87.5521 78.1042 85.9479 80.0417 84.0938 81.75C78.4062 86.9583 71.3854 89.6354 63.0312 89.7812C54.6979 89.9479 47.6875 87.25 42 81.6875ZM70.9688 86V41.75C69.6562 41 68.6979 39.9062 68.0938 38.4688C67.5104 37.0104 67.125 35.875 66.9375 35.0625L66.2188 35.4688L66.0938 73.7188L50.7812 78.9375C51.2812 79.7083 51.9479 80.6042 52.7812 81.625C53.6146 82.625 54.8125 83.5625 56.375 84.4375C58.3958 85.5833 60.7812 86.4167 63.5312 86.9375C66.3021 87.4375 68.7812 87.125 70.9688 86ZM47.875 45.5312C47.6875 47.7188 47.5833 49.9792 47.5625 52.3125C47.5625 54.625 47.5938 56.875 47.6562 59.0625C47.6771 60.2708 47.7604 63.0938 47.9062 67.5312C48.0521 71.9479 48.8229 75.2604 50.2188 77.4688L52.7812 76.5625V42.8438L47.875 45.5312Z" fill="white"/>
<path d="M72.5625 42.3125L72.9816 41.4045L71.5625 40.7496V42.3125H72.5625ZM72.5625 52.8438H71.5625V53.8438H72.5625V52.8438ZM78.6562 51.875L78.8882 52.8478L78.8953 52.846L78.6562 51.875ZM85.4062 46.6875L86.2479 47.2276L86.2528 47.2198L85.4062 46.6875ZM87.5 33.6875L88.4984 33.6313L86.5432 33.3966L87.5 33.6875ZM83.9688 39.5L83.3378 38.7242L83.3327 38.7284L83.9688 39.5ZM79.25 42.0938L78.9753 41.1322L78.9719 41.1332L79.25 42.0938ZM74.9062 42.6562L74.8259 43.653L74.8344 43.6537L74.8429 43.6542L74.9062 42.6562ZM72.5625 53.8438L72.4764 52.8475L71.5625 52.9264V53.8438H72.5625ZM72.5625 85.6875H71.5625V87.5296L73.1073 86.5261L72.5625 85.6875ZM75.9375 54.9062L76.7741 54.3585L76.7727 54.3563L75.9375 54.9062ZM42 81.6875L41.2984 82.4001L41.3008 82.4024L42 81.6875ZM35.4688 71.9375L34.5509 72.3344L35.4688 71.9375ZM46.7188 31.3125L46.1483 30.4911L46.1442 30.494L46.7188 31.3125ZM56.7812 27.375L56.5851 26.3943L56.5717 26.3972L56.7812 27.375ZM57.1875 27.6562L56.2011 27.4919L56.1944 27.5323L56.191 27.5732L57.1875 27.6562ZM56.9688 28.0625L56.8044 27.0761L56.7594 27.0836L56.7154 27.0951L56.9688 28.0625ZM53.625 29.6562L54.1454 30.5102L54.1491 30.5079L53.625 29.6562ZM50.75 32.6562L51.6391 33.1139L51.6434 33.1056L51.6476 33.0972L50.75 32.6562ZM49 37.6562L48.025 37.4337L48.0233 37.4416L49 37.6562ZM48.0312 43.7812L47.0367 43.6771L46.8282 45.6674L48.545 44.6392L48.0312 43.7812ZM76.1562 26.9375L76.9245 26.2973L76.3766 25.6399L75.6425 26.0796L76.1562 26.9375ZM76.6562 26.9375L76.209 26.0431L76.1931 26.0511L76.1774 26.0596L76.6562 26.9375ZM77.125 27.4062L78.1189 27.2958L78.1172 27.2803L78.1149 27.2648L77.125 27.4062ZM78.4688 32.5938L77.5868 33.0651L77.5917 33.0743L77.5968 33.0833L78.4688 32.5938ZM80.625 34.9688L81.1008 34.0892L81.0914 34.0841L81.0818 34.0792L80.625 34.9688ZM84.7812 34.0938L84.14 33.3264L84.1348 33.3308L84.7812 34.0938ZM87.125 29.4375L88.1247 29.4602L88.125 29.4489V29.4375H87.125ZM87.6875 29.0938L87.632 30.0922L87.6597 30.0938H87.6875V29.0938ZM88.2812 29.3438H89.2812V29.2815L89.2735 29.2197L88.2812 29.3438ZM88.3438 31.0312L87.3472 31.1143L87.3491 31.1375L87.3521 31.1606L88.3438 31.0312ZM88.5 32.5938L89.4994 32.5599L89.4987 32.5399L89.4973 32.5199L88.5 32.5938ZM88.0625 42.8438L89.0537 42.9759L89.0538 42.9751L88.0625 42.8438ZM81.4062 52.3125L80.785 51.5289L78.622 53.2436L81.3814 53.3122L81.4062 52.3125ZM89.375 57.0938L88.5292 57.6273L88.5309 57.6299L89.375 57.0938ZM91.4375 68.9375L92.4298 69.0615L92.4302 69.0578L91.4375 68.9375ZM88.9062 75.9375L88.0619 75.4017L88.0583 75.4075L88.9062 75.9375ZM84.0938 81.75L84.7691 82.4875L84.7713 82.4854L84.0938 81.75ZM63.0312 89.7812L63.0138 88.7814L63.0113 88.7814L63.0312 89.7812ZM70.9688 86L71.4261 86.8893L71.9688 86.6102V86H70.9688ZM70.9688 41.75H71.9688V41.1697L71.4649 40.8818L70.9688 41.75ZM68.0938 38.4688L67.1653 38.8401L67.1685 38.8482L67.1719 38.8562L68.0938 38.4688ZM66.9375 35.0625L67.9119 34.8376L67.6109 33.5332L66.4454 34.1919L66.9375 35.0625ZM66.2188 35.4688L65.7267 34.5982L65.2207 34.8842L65.2188 35.4655L66.2188 35.4688ZM66.0938 73.7188L66.4163 74.6653L67.0914 74.4352L67.0937 73.722L66.0938 73.7188ZM50.7812 78.9375L50.4587 77.991L49.2439 78.405L49.9423 79.4817L50.7812 78.9375ZM52.7812 81.625L52.0065 82.2574L52.013 82.2652L52.7812 81.625ZM56.375 84.4375L56.8682 83.5676L56.8636 83.565L56.375 84.4375ZM63.5312 86.9375L63.3452 87.9201L63.3537 87.9216L63.5312 86.9375ZM47.875 45.5312L47.3946 44.6542L46.9244 44.9117L46.8787 45.4458L47.875 45.5312ZM47.5625 52.3125L46.5625 52.3036V52.3125H47.5625ZM47.6562 59.0625L48.6562 59.0453L48.6558 59.0339L47.6562 59.0625ZM47.9062 67.5312L46.9068 67.5641L46.9068 67.5643L47.9062 67.5312ZM50.2188 77.4688L49.3735 78.003L49.7998 78.6776L50.5522 78.4115L50.2188 77.4688ZM52.7812 76.5625L53.1147 77.5053L53.7812 77.2695V76.5625H52.7812ZM52.7812 42.8438H53.7812V41.1558L52.3008 41.9667L52.7812 42.8438ZM71.5625 42.3125V52.8438H73.5625V42.3125H71.5625ZM72.5625 53.8438C74.0399 53.8438 76.1661 53.4969 78.8882 52.8477L78.4243 50.9023C75.7298 51.5448 73.7935 51.8438 72.5625 51.8438V53.8438ZM78.8953 52.846C81.8982 52.1068 84.3458 50.1913 86.2478 47.2276L84.5647 46.1474C82.8834 48.767 80.831 50.3098 78.4172 50.904L78.8953 52.846ZM86.2528 47.2198C88.1514 44.2003 88.8351 39.6067 88.4984 33.6313L86.5016 33.7437C86.8316 39.6016 86.1194 43.6747 84.5597 46.1552L86.2528 47.2198ZM86.5432 33.3966C85.7896 35.8757 84.7002 37.6161 83.3378 38.7242L84.5997 40.2758C86.3623 38.8422 87.6271 36.7076 88.4568 33.9784L86.5432 33.3966ZM83.3327 38.7284C81.8765 39.9287 80.4238 40.7184 78.9753 41.1322L79.5247 43.0553C81.2846 42.5525 82.9776 41.613 84.6048 40.2716L83.3327 38.7284ZM78.9719 41.1332C77.4725 41.5672 76.142 41.7327 74.9696 41.6583L74.8429 43.6542C76.2955 43.7465 77.8608 43.5369 79.5281 43.0543L78.9719 41.1332ZM74.9866 41.6595C74.3507 41.6082 73.8566 41.5556 73.4967 41.5028C73.0945 41.4438 72.9684 41.3985 72.9816 41.4045L72.1434 43.2205C72.4274 43.3515 72.8274 43.426 73.2064 43.4816C73.6277 43.5434 74.1702 43.6001 74.8259 43.653L74.9866 41.6595ZM71.5625 53.8438V85.6875H73.5625V53.8438H71.5625ZM73.1073 86.5261C76.1348 84.5593 77.9198 82.0863 78.1837 79.0877L76.1913 78.9123C75.9969 81.122 74.6985 83.1074 72.0177 84.8489L73.1073 86.5261ZM78.1837 79.0877C78.4156 76.4516 78.5312 73.6827 78.5312 70.7812H76.5312C76.5312 73.6298 76.4177 76.34 76.1913 78.9123L78.1837 79.0877ZM78.5312 70.7812C78.5312 68.9123 78.552 66.2399 78.5937 62.762L76.5938 62.738C76.5521 66.2184 76.5312 68.9002 76.5312 70.7812H78.5312ZM78.5937 62.762C78.6363 59.2028 78.0794 56.352 76.7741 54.3585L75.1009 55.454C76.0873 56.9605 76.6345 59.3389 76.5938 62.738L78.5937 62.762ZM76.7727 54.3563C75.8993 53.03 74.2768 52.6919 72.4764 52.8475L72.6486 54.84C74.2232 54.704 74.8507 55.0742 75.1023 55.4562L76.7727 54.3563ZM42.7016 80.9749C40.1157 78.4291 38.008 75.29 36.3866 71.5406L34.5509 72.3344C36.2629 76.2934 38.5093 79.6542 41.2984 82.4001L42.7016 80.9749ZM36.3866 71.5406C34.7832 67.8328 33.9688 63.5551 33.9688 58.6875H31.9688C31.9688 63.7782 32.8209 68.3339 34.5509 72.3344L36.3866 71.5406ZM33.9688 58.6875C33.9688 53.3683 35.1908 48.3156 37.6406 43.5172L35.8594 42.6078C33.2675 47.6844 31.9688 53.0483 31.9688 58.6875H33.9688ZM37.6406 43.5172C40.0949 38.7101 43.3147 34.924 47.2933 32.131L46.1442 30.494C41.8728 33.4927 38.4468 37.5399 35.8594 42.6078L37.6406 43.5172ZM47.2891 32.1339C48.7147 31.1439 50.2483 30.3622 51.8923 29.7878L51.2327 27.8997C49.4184 28.5336 47.7228 29.3977 46.1484 30.4911L47.2891 32.1339ZM51.8923 29.7878C53.5831 29.1971 55.2825 28.7189 56.9908 28.3528L56.5717 26.3972C54.78 26.7811 53.0003 27.2821 51.2327 27.8997L51.8923 29.7878ZM56.9774 28.3556C57.0015 28.3508 56.9743 28.3593 56.9128 28.355C56.8521 28.3508 56.7061 28.3301 56.548 28.2206C56.3719 28.0988 56.2656 27.9253 56.2208 27.7612C56.182 27.6189 56.1971 27.5158 56.2011 27.4919L58.1739 27.8206C58.2201 27.5435 58.2273 26.9507 57.6864 26.5762C57.2613 26.282 56.7869 26.3541 56.5851 26.3944L56.9774 28.3556ZM56.191 27.5732C56.1856 27.6371 56.1797 27.5772 56.2367 27.4712C56.2694 27.4106 56.3297 27.3221 56.4331 27.2405C56.5414 27.155 56.6702 27.0985 56.8044 27.0761L57.1331 29.0489C57.5666 28.9766 57.8495 28.6946 57.9977 28.4194C58.1276 28.178 58.1685 27.9254 58.184 27.7393L56.191 27.5732ZM56.7154 27.0951C55.699 27.3613 54.4857 27.9524 53.1009 28.8046L54.1491 30.5079C55.4726 29.6935 56.4885 29.222 57.2221 29.0299L56.7154 27.0951ZM53.1046 28.8023C51.6386 29.6957 50.5338 30.8283 49.8524 32.2153L51.6476 33.0972C52.1329 32.1092 52.9448 31.2418 54.1454 30.5102L53.1046 28.8023ZM49.8609 32.1986C49.0857 33.7047 48.4771 35.4536 48.0251 37.4337L49.9749 37.8788C50.3979 36.0256 50.956 34.4411 51.6391 33.1139L49.8609 32.1986ZM48.0233 37.4416C47.5977 39.3783 47.2692 41.4572 47.0367 43.6771L49.0258 43.8854C49.2516 41.7303 49.569 39.7259 49.9767 37.8709L48.0233 37.4416ZM48.545 44.6392L76.67 27.7954L75.6425 26.0796L47.5175 42.9233L48.545 44.6392ZM75.388 27.5777C75.6354 27.8745 75.9876 28.0312 76.3594 28.0312C76.6788 28.0312 76.949 27.9169 77.1351 27.8154L76.1774 26.0596C76.1344 26.0831 76.2066 26.0312 76.3594 26.0312C76.4453 26.0312 76.5529 26.0481 76.6652 26.0999C76.778 26.152 76.8642 26.225 76.9245 26.2973L75.388 27.5777ZM77.1035 27.8319C77.0618 27.8528 76.9346 27.9078 76.7495 27.8935C76.5414 27.8775 76.3682 27.7824 76.2538 27.668C76.1563 27.5705 76.1249 27.4838 76.1222 27.4766C76.1177 27.4645 76.1258 27.4828 76.1351 27.5477L78.1149 27.2648C78.0787 27.0111 77.9907 26.5765 77.668 26.2538C77.4756 26.0614 77.2125 25.9232 76.9029 25.8994C76.6162 25.8774 76.3757 25.9597 76.209 26.0431L77.1035 27.8319ZM76.1311 27.5167C76.3872 29.8214 76.8545 31.695 77.5868 33.0651L79.3507 32.1224C78.7913 31.0758 78.3628 29.4911 78.1189 27.2958L76.1311 27.5167ZM77.5968 33.0833C78.309 34.3519 79.1492 35.335 80.1682 35.8583L81.0818 34.0792C80.5592 33.8108 79.9618 33.2106 79.3407 32.1042L77.5968 33.0833ZM80.1492 35.8483C80.9883 36.3022 81.8935 36.4399 82.8232 36.2442C83.7291 36.0534 84.5977 35.5599 85.4277 34.8567L84.1348 33.3308C83.4648 33.8984 82.8906 34.1861 82.4112 34.2871C81.9555 34.383 81.5325 34.3228 81.1008 34.0892L80.1492 35.8483ZM85.4225 34.8611C87.1444 33.4222 88.0759 31.6071 88.1247 29.4602L86.1253 29.4148C86.0907 30.9345 85.4598 32.2236 84.14 33.3264L85.4225 34.8611ZM88.125 29.4375C88.125 29.4996 88.113 29.6091 88.0494 29.7327C87.9829 29.8622 87.8851 29.9574 87.7871 30.0173C87.6235 30.1173 87.519 30.0859 87.632 30.0922L87.743 28.0953C87.481 28.0807 87.0953 28.0962 86.7442 28.3108C86.3076 28.5776 86.125 29.0211 86.125 29.4375H88.125ZM87.6875 30.0938C87.8264 30.0938 87.8124 30.1129 87.7291 30.0779C87.6782 30.0565 87.5773 30.0043 87.4798 29.8929C87.3742 29.7721 87.3082 29.6218 87.289 29.4678L89.2735 29.2197C89.2061 28.6805 88.8276 28.3703 88.5052 28.2346C88.2241 28.1162 87.9236 28.0938 87.6875 28.0938V30.0938ZM87.2812 29.3438C87.2812 29.9901 87.3028 30.581 87.3472 31.1143L89.3403 30.9482C89.3014 30.4815 89.2812 29.9474 89.2812 29.3438H87.2812ZM87.3521 31.1606C87.4119 31.6186 87.4622 32.1207 87.5027 32.6676L89.4973 32.5199C89.4544 31.9418 89.4006 31.4022 89.3354 30.9019L87.3521 31.1606ZM87.5006 32.6276C87.624 36.2686 87.4795 39.6293 87.0712 42.7124L89.0538 42.9751C89.4788 39.7665 89.626 36.2939 89.4994 32.5599L87.5006 32.6276ZM87.0713 42.7116C86.7049 45.4591 84.7239 48.4063 80.785 51.5289L82.0275 53.0961C86.1303 49.8437 88.5867 46.4784 89.0537 42.9759L87.0713 42.7116ZM81.3814 53.3122C84.3657 53.3863 86.7296 54.7746 88.5292 57.6273L90.2208 56.5602C88.1038 53.2045 85.1551 51.4053 81.4311 51.3128L81.3814 53.3122ZM88.5309 57.6299C90.3299 60.4624 91.0094 64.1586 90.4448 68.8172L92.4302 69.0578C93.0322 64.0914 92.3368 59.8918 90.2191 56.5576L88.5309 57.6299ZM90.4452 68.8135C90.1514 71.1642 89.3593 73.3573 88.0619 75.4017L89.7506 76.4733C91.2032 74.1844 92.0986 71.7108 92.4298 69.0615L90.4452 68.8135ZM88.0583 75.4075C86.7508 77.4994 85.2037 79.3676 83.4162 81.0146L84.7713 82.4854C86.6921 80.7157 88.3534 78.7089 89.7542 76.4675L88.0583 75.4075ZM83.4184 81.0125C77.9265 86.0417 71.146 88.6394 63.0138 88.7814L63.0487 90.7811C71.6248 90.6314 78.886 87.8749 84.7691 82.4875L83.4184 81.0125ZM63.0113 88.7814C54.9319 88.943 48.1849 86.3377 42.6992 80.9726L41.3008 82.4024C47.1901 88.1623 54.464 90.9528 63.0512 90.7811L63.0113 88.7814ZM71.9688 86V41.75H69.9688V86H71.9688ZM71.4649 40.8818C70.3497 40.2445 69.5375 39.323 69.0156 38.0813L67.1719 38.8562C67.8583 40.4895 68.9628 41.7555 70.4726 42.6182L71.4649 40.8818ZM69.0222 38.0974C68.4444 36.6528 68.0819 35.5742 67.9119 34.8376L65.9631 35.2874C66.1681 36.1758 66.5764 37.368 67.1653 38.8401L69.0222 38.0974ZM66.4454 34.1919L65.7267 34.5982L66.7108 36.3393L67.4296 35.9331L66.4454 34.1919ZM65.2188 35.4655L65.0938 73.7155L67.0937 73.722L67.2187 35.472L65.2188 35.4655ZM65.7712 72.7722L50.4587 77.991L51.1038 79.884L66.4163 74.6653L65.7712 72.7722ZM49.9423 79.4817C50.4686 80.293 51.1592 81.2193 52.0066 82.2574L53.5559 80.9926C52.7366 79.989 52.0939 79.1237 51.6202 78.3933L49.9423 79.4817ZM52.013 82.2652C52.948 83.3871 54.2546 84.3962 55.8864 85.31L56.8636 83.565C55.3704 82.7288 54.2812 81.8629 53.5495 80.9848L52.013 82.2652ZM55.8818 85.3074C58.0154 86.5172 60.5087 87.3828 63.3452 87.92L63.7173 85.955C61.0538 85.4505 58.7763 84.6495 56.8682 83.5676L55.8818 85.3074ZM63.3537 87.9216C66.3081 88.4547 69.0155 88.129 71.4261 86.8893L70.5114 85.1107C68.547 86.121 66.2961 86.4203 63.7088 85.9534L63.3537 87.9216ZM46.8787 45.4458C46.6888 47.6603 46.5836 49.9463 46.5625 52.3036L48.5625 52.3214C48.5831 50.012 48.6862 47.7772 48.8713 45.6167L46.8787 45.4458ZM46.5625 52.3125C46.5625 54.634 46.5939 56.8935 46.6567 59.0911L48.6558 59.0339C48.5936 56.8565 48.5625 54.616 48.5625 52.3125H46.5625ZM46.6564 59.0797C46.6774 60.2975 46.761 63.129 46.9068 67.5641L48.9057 67.4984C48.7598 63.0585 48.6768 60.2441 48.6561 59.0453L46.6564 59.0797ZM46.9068 67.5643C47.0549 72.0502 47.8377 75.5734 49.3735 78.003L51.064 76.9345C49.8081 74.9474 49.0492 71.8456 48.9057 67.4982L46.9068 67.5643ZM50.5522 78.4115L53.1147 77.5053L52.4478 75.6197L49.8853 76.526L50.5522 78.4115ZM53.7812 76.5625V42.8438H51.7812V76.5625H53.7812ZM52.3008 41.9667L47.3946 44.6542L48.3554 46.4083L53.2617 43.7208L52.3008 41.9667Z" fill="black" mask="url(#path-1-outside-1_1_2)"/>
</g>
<defs>
<clipPath id="clip0_1_2">
<rect width="128" height="128" fill="white"/>
</clipPath>
</defs>
</svg>
